<svg width="18" height="18" viewBox="0 0 18 18" fill="none" xmlns="http://www.w3.org/2000/svg">
  <path fill-rule="evenodd" clip-rule="evenodd" d="M12.5 0.75H5.25C4.42157 0.75 3.75 1.42157 3.75 2.25V12.75C3.75 13.5784 4.42157 14.25 5.25 14.25H12.5C13.3284 14.25 14 13.5784 14 12.75V2.25C14 1.42157 13.3284 0.75 12.5 0.75ZM5.25 2.25H12.5V12.75H5.25V2.25ZM15.75 4.5C16.5784 4.5 17.25 5.17157 17.25 6V15.75C17.25 16.5784 16.5784 17.25 15.75 17.25H7.5C6.67157 17.25 6 16.5784 6 15.75V15H7.5V15.75H15.75V6H14.25V4.5H15.75Z" fill="#33322E"/>
</svg>
